<svg width="14" height="12" viewBox="0 0 14 12" fill="none" xmlns="http://www.w3.org/2000/svg">
<path d="M12.6875 0H1.3125C0.587891 0 0 0.575893 0 1.28571V10.7143C0 11.4241 0.587891 12 1.3125 12H12.6875C13.4121 12 14 11.4241 14 10.7143V1.28571C14 0.575893 13.4121 0 12.6875 0ZM10.4016 7.78125C10.5328 7.90982 10.5328 8.11875 10.4016 8.24732L9.29414 9.33214C9.16289 9.46071 8.94961 9.46071 8.81836 9.33214L7 7.53482L5.18164 9.33214C5.05039 9.46071 4.83711 9.46071 4.70586 9.33214L3.59844 8.24732C3.46719 8.11875 3.46719 7.90982 3.59844 7.78125L5.4332 6L3.59844 4.21875C3.46719 4.09018 3.46719 3.88125 3.59844 3.75268L4.70586 2.66786C4.83711 2.53929 5.05039 2.53929 5.18164 2.66786L7 4.46518L8.81836 2.66786C8.94961 2.53929 9.16289 2.53929 9.29414 2.66786L10.4016 3.75268C10.5328 3.88125 10.5328 4.09018 10.4016 4.21875L8.5668 6L10.4016 7.78125Z" fill="black"/>
</svg>
