<svg width="26" height="26" viewBox="0 0 26 26" fill="none" xmlns="http://www.w3.org/2000/svg">
<path d="M23.4355 7.20077C23.0952 6.41274 22.6045 5.69863 21.9908 5.09842C21.3767 4.49643 20.6526 4.01803 19.858 3.68925C19.034 3.34696 18.1503 3.17176 17.258 3.17382C16.0063 3.17382 14.785 3.51659 13.7236 4.16405C13.4697 4.31893 13.2285 4.48905 13 4.6744C12.7715 4.48905 12.5303 4.31893 12.2764 4.16405C11.215 3.51659 9.99375 3.17382 8.74199 3.17382C7.84062 3.17382 6.96719 3.34647 6.14199 3.68925C5.34473 4.01932 4.62617 4.49413 4.00918 5.09842C3.39472 5.69795 2.90387 6.41223 2.56445 7.20077C2.21152 8.02089 2.03125 8.89178 2.03125 9.78807C2.03125 10.6336 2.20391 11.5146 2.54668 12.4109C2.83359 13.1599 3.24492 13.9369 3.77051 14.7215C4.60332 15.9631 5.74844 17.258 7.17031 18.5707C9.52656 20.7467 11.86 22.2498 11.959 22.3107L12.5607 22.6967C12.8273 22.8668 13.1701 22.8668 13.4367 22.6967L14.0385 22.3107C14.1375 22.2473 16.4684 20.7467 18.8271 18.5707C20.249 17.258 21.3941 15.9631 22.227 14.7215C22.7525 13.9369 23.1664 13.1599 23.4508 12.4109C23.7936 11.5146 23.9662 10.6336 23.9662 9.78807C23.9688 8.89178 23.7885 8.02089 23.4355 7.20077V7.20077Z" fill="#F6F6F6"/>
</svg>
