<svg width="132" height="54" viewBox="0 0 132 54" fill="none" xmlns="http://www.w3.org/2000/svg">
<path opacity="0.75" d="M36.702 31.68L35.98 32.3719L35.9948 32.3873L36.0101 32.402L36.702 31.68ZM37.382 40.945L36.5397 40.4059L36.534 40.415L37.382 40.945ZM33.897 44.6L34.487 45.4074L33.897 44.6ZM28.712 47.15L28.9868 48.1115L28.9994 48.1079L29.0119 48.104L28.712 47.15ZM14.177 46.385L13.7471 47.2879L13.7599 47.294L13.7729 47.2997L14.177 46.385ZM8.05703 41.88L7.2962 42.5289L7.30646 42.541L7.31709 42.5527L8.05703 41.88ZM4.23203 35.165L3.28335 35.4812L3.28649 35.4907L3.28982 35.5L4.23203 35.165ZM4.23203 18.845L3.28982 18.51L3.28649 18.5193L3.28335 18.5288L4.23203 18.845ZM8.05703 12.215L7.31709 11.5423L7.31143 11.5486L7.30587 11.5549L8.05703 12.215ZM14.177 7.795L14.5892 8.70616L14.5988 8.70172L14.177 7.795ZM29.817 7.625L29.4067 8.53692L29.4162 8.54123L29.4259 8.54533L29.817 7.625ZM35.682 11.45L34.9874 12.1694L34.994 12.1757L35.0006 12.1819L35.682 11.45ZM39.507 16.72L40.4165 16.3042L39.507 16.72ZM40.867 22.585V23.585H41.867V22.585H40.867ZM16.302 22.585V21.585H15.302V22.585H16.302ZM16.727 39.755L15.7377 39.9005L15.7401 39.9172L15.7432 39.9339L16.727 39.755ZM18.172 44.345L17.2862 44.809L17.2909 44.818L17.2958 44.8269L18.172 44.345ZM20.467 46.81L19.9768 47.6816L20.0084 47.6994L20.0412 47.7148L20.467 46.81ZM26.927 46.895L26.6108 45.9463L26.6037 45.9487L26.5967 45.9511L26.927 46.895ZM29.137 44.685L30.1041 44.9395L30.11 44.9171L30.1148 44.8945L29.137 44.685ZM28.627 42.73L27.8462 43.3547L27.8808 43.3979L27.9199 43.4371L28.627 42.73ZM27.267 41.2L27.9741 40.4929L27.267 41.2ZM27.182 31.68L27.8891 32.3871L27.182 31.68ZM20.552 7.115L20.1048 6.22057L20.0913 6.22734L20.0779 6.23453L20.552 7.115ZM17.322 11.62L16.3663 11.3259V11.3259L17.322 11.62ZM16.302 22.16H15.302V23.16H16.302V22.16ZM28.372 22.16V23.16H29.372V22.16H28.372ZM28.287 17.655L29.2863 17.618L28.287 17.655ZM27.777 13.32L26.7981 13.524V13.524L27.777 13.32ZM26.417 9.665L25.5321 10.1307L25.5415 10.1486L25.5516 10.166L26.417 9.665ZM24.037 7.115L24.5585 6.26172L24.5222 6.23957L24.4842 6.22057L24.037 7.115ZM23.442 6.86L23.0706 7.78847L23.0706 7.78847L23.442 6.86ZM21.147 6.86L20.8308 5.91131L20.8029 5.92061L20.7756 5.93152L21.147 6.86ZM32.027 30.64C33.5561 30.64 34.8571 31.2001 35.98 32.3719L37.424 30.9881C35.9403 29.4399 34.1246 28.64 32.027 28.64V30.64ZM36.0101 32.402C37.1819 33.5249 37.742 34.8259 37.742 36.355H39.742C39.742 34.2574 38.9422 32.4417 37.3939 30.958L36.0101 32.402ZM37.742 36.355C37.742 37.8026 37.346 39.1462 36.5398 40.4059L38.2243 41.4841C39.2314 39.9105 39.742 38.1941 39.742 36.355H37.742ZM36.534 40.415C35.7602 41.6531 34.6915 42.7808 33.307 43.7926L34.487 45.4074C36.0492 44.2658 37.3038 42.9569 38.23 41.475L36.534 40.415ZM33.307 43.7926C31.9331 44.7966 30.3057 45.6009 28.4122 46.196L29.0119 48.104C31.085 47.4524 32.9143 46.5567 34.487 45.4074L33.307 43.7926ZM28.4373 46.1885C26.5517 46.7272 24.5199 47 22.337 47V49C24.6875 49 26.9057 48.7061 28.9868 48.1115L28.4373 46.1885ZM22.337 47C19.4551 47 16.8753 46.484 14.5812 45.4703L13.7729 47.2997C16.3521 48.4394 19.2122 49 22.337 49V47ZM14.607 45.4821C12.3391 44.4022 10.4058 42.9771 8.79697 41.2073L7.31709 42.5527C9.10824 44.5229 11.2549 46.1011 13.7471 47.2879L14.607 45.4821ZM8.81787 41.2311C7.25892 39.4033 6.04291 37.2731 5.17425 34.83L3.28982 35.5C4.23448 38.1569 5.56848 40.5033 7.2962 42.5289L8.81787 41.2311ZM5.18071 34.8488C4.36717 32.4081 3.95703 29.7956 3.95703 27.005H1.95703C1.95703 29.9944 2.39689 32.8219 3.28335 35.4812L5.18071 34.8488ZM3.95703 27.005C3.95703 24.2144 4.36717 21.6019 5.18071 19.1612L3.28335 18.5288C2.39689 21.1881 1.95703 24.0156 1.95703 27.005H3.95703ZM5.17425 19.18C6.04214 16.739 7.25562 14.6418 8.8082 12.8751L7.30587 11.5549C5.57178 13.5282 4.23525 15.851 3.28982 18.51L5.17425 19.18ZM8.79697 12.8877C10.402 11.1221 12.3293 9.72844 14.5892 8.70611L13.7649 6.88389C11.2648 8.01489 9.11204 9.56789 7.31709 11.5423L8.79697 12.8877ZM14.5988 8.70172C16.8885 7.6367 19.4622 7.095 22.337 7.095V5.095C19.2052 5.095 16.3389 5.68662 13.7553 6.88828L14.5988 8.70172ZM22.337 7.095C24.929 7.095 27.2808 7.58026 29.4067 8.53692L30.2274 6.71308C27.82 5.62973 25.185 5.095 22.337 5.095V7.095ZM29.4259 8.54533C31.5888 9.46457 33.4388 10.6741 34.9874 12.1694L36.3766 10.7306C34.6386 9.05252 32.5786 7.71209 30.2082 6.70467L29.4259 8.54533ZM35.0006 12.1819C36.5508 13.6252 37.7471 15.2753 38.5976 17.1358L40.4165 16.3042C39.4537 14.198 38.0999 12.3348 36.3635 10.7181L35.0006 12.1819ZM38.5976 17.1358C39.4524 19.0058 39.867 20.8196 39.867 22.585H41.867C41.867 20.497 41.3749 18.4008 40.4165 16.3042L38.5976 17.1358ZM40.867 21.585H16.302V23.585H40.867V21.585ZM15.302 22.585V27.005H17.302V22.585H15.302ZM15.302 27.005V32.53H17.302V27.005H15.302ZM15.302 32.53C15.302 35.4478 15.4448 37.9086 15.7377 39.9005L17.7164 39.6095C17.4426 37.748 17.302 35.3922 17.302 32.53H15.302ZM15.7432 39.9339C16.0944 41.8656 16.601 43.5009 17.2862 44.809L19.0579 43.881C18.4964 42.8091 18.0397 41.3844 17.7109 39.5761L15.7432 39.9339ZM17.2958 44.8269C17.9872 46.084 18.8723 47.0603 19.9768 47.6816L20.9573 45.9384C20.2484 45.5397 19.6035 44.8727 19.0482 43.8631L17.2958 44.8269ZM20.0412 47.7148C21.1642 48.2433 22.4488 48.49 23.867 48.49V46.49C22.6786 46.49 21.6965 46.2834 20.8928 45.9052L20.0412 47.7148ZM23.867 48.49C24.916 48.49 26.0502 48.2614 27.2574 47.8389L26.5967 45.9511C25.5371 46.322 24.6314 46.49 23.867 46.49V48.49ZM27.2433 47.8437C28.7058 47.3562 29.7228 46.3884 30.1041 44.9395L28.17 44.4305C27.9846 45.135 27.5283 45.6405 26.6108 45.9463L27.2433 47.8437ZM30.1148 44.8945C30.3454 43.8184 30.1173 42.806 29.3341 42.0229L27.9199 43.4371C28.1568 43.674 28.2686 43.965 28.1592 44.4755L30.1148 44.8945ZM29.4079 42.1053C28.9345 41.5135 28.4567 40.9755 27.9741 40.4929L26.5599 41.9071C26.984 42.3312 27.4129 42.8132 27.8462 43.3547L29.4079 42.1053ZM27.9741 40.4929C26.7957 39.3144 26.227 37.9514 26.227 36.355H24.227C24.227 38.4986 25.0184 40.3656 26.5599 41.9071L27.9741 40.4929ZM26.227 36.355C26.227 34.8117 26.7699 33.5064 27.8891 32.3871L26.4749 30.9729C24.9875 32.4603 24.227 34.2716 24.227 36.355H26.227ZM27.8891 32.3871C29.0676 31.2087 30.4306 30.64 32.027 30.64V28.64C29.8835 28.64 28.0165 29.4313 26.4749 30.9729L27.8891 32.3871ZM20.0779 6.23453C18.2967 7.19367 17.0935 8.96234 16.3663 11.3259L18.2778 11.9141C18.9106 9.85766 19.8607 8.62299 21.0261 7.99547L20.0779 6.23453ZM16.3663 11.3259C15.6412 13.6823 15.302 17.1186 15.302 21.565H17.302C17.302 17.1714 17.6429 13.9777 18.2778 11.9141L16.3663 11.3259ZM15.302 21.565V22.16H17.302V21.565H15.302ZM16.302 23.16H28.372V21.16H16.302V23.16ZM29.372 22.16C29.372 20.6739 29.3435 19.1598 29.2863 17.618L27.2877 17.692C27.3439 19.2102 27.372 20.6995 27.372 22.16H29.372ZM29.2863 17.618C29.2278 16.0375 29.0519 14.5363 28.756 13.116L26.7981 13.524C27.0688 14.8237 27.2329 16.2125 27.2877 17.692L29.2863 17.618ZM28.756 13.116C28.4534 11.6637 27.9651 10.3431 27.2825 9.16396L25.5516 10.166C26.1156 11.1403 26.534 12.2563 26.7981 13.524L28.756 13.116ZM27.302 9.19925C26.6529 7.96599 25.7352 6.98084 24.5585 6.26172L23.5156 7.96828C24.3788 8.49582 25.0479 9.21068 25.5321 10.1307L27.302 9.19925ZM24.4842 6.22057C24.3298 6.14337 24.0968 6.04487 23.8134 5.93152L23.0706 7.78847C23.3539 7.90179 23.5176 7.97329 23.5898 8.00942L24.4842 6.22057ZM23.8134 5.93152C23.3692 5.75383 22.8616 5.69 22.337 5.69V7.69C22.7192 7.69 22.9482 7.7395 23.0706 7.78847L23.8134 5.93152ZM22.337 5.69C21.8034 5.69 21.2957 5.75636 20.8308 5.91131L21.4633 7.80868C21.6784 7.73697 21.964 7.69 22.337 7.69V5.69ZM20.7756 5.93152C20.4923 6.04487 20.2592 6.14337 20.1048 6.22057L20.9992 8.00943C21.0715 7.97329 21.2351 7.90179 21.5184 7.78847L20.7756 5.93152Z" fill="white"/>
<path opacity="0.75" d="M77.8438 6.52V7.52H78.8438V6.52H77.8438ZM73.2538 7.965L73.8318 8.78102V8.78102L73.2538 7.965ZM70.0238 11.62L70.8865 12.1257L70.8957 12.1101L70.9043 12.0941L70.0238 11.62ZM62.7988 23.945L61.9361 23.4393L61.6392 23.9458L61.9368 24.4519L62.7988 23.945ZM76.1438 46.64L75.2817 47.1469L75.2863 47.1545L76.1438 46.64ZM77.8438 47.49H78.8438V46.49H77.8438V47.49ZM77.8438 48V49H78.8438V48H77.8438ZM60.6738 48H59.6738V49H60.6738V48ZM60.6738 47.49V46.49H59.6738V47.49H60.6738ZM61.3538 47.235L60.6467 46.5279H60.6467L61.3538 47.235ZM61.6088 45.875L62.5032 45.4278L62.4883 45.3979L62.4713 45.369L61.6088 45.875ZM52.6838 30.66L53.5463 30.154L52.6835 28.6831L51.8211 30.1543L52.6838 30.66ZM46.9038 40.52L47.7554 41.0441L47.7611 41.035L47.7665 41.0257L46.9038 40.52ZM47.5838 46.215L48.2909 45.5079L47.5838 46.215ZM50.8988 47.575H51.8988V46.575H50.8988V47.575ZM50.8988 48V49H51.8988V48H50.8988ZM37.3838 48H36.3838V49H37.3838V48ZM37.3838 47.575V46.575H36.3838V47.575H37.3838ZM41.8888 46.13L42.4832 46.9342L42.4888 46.93L41.8888 46.13ZM45.2038 42.475L46.0613 42.9895L46.0665 42.9807L45.2038 42.475ZM52.4288 30.15L53.2915 30.6557L53.5878 30.1502L53.2916 29.6445L52.4288 30.15ZM39.0838 7.37L39.9466 6.86453L39.932 6.83947L39.9158 6.8153L39.0838 7.37ZM37.3838 6.605H36.3838V7.605H37.3838V6.605ZM37.3838 6.095V5.095H36.3838V6.095H37.3838ZM54.5538 6.095H55.5538V5.095H54.5538V6.095ZM54.5538 6.605V7.605H55.5538V6.605H54.5538ZM53.6188 8.22L52.7244 8.66721L52.7393 8.69712L52.7562 8.72596L53.6188 8.22ZM62.5438 23.435L61.6812 23.941L62.5441 25.4119L63.4065 23.9407L62.5438 23.435ZM68.3238 13.575L67.4721 13.0509L67.4665 13.06L67.4611 13.0693L68.3238 13.575ZM64.3288 6.52H63.3288V7.52H64.3288V6.52ZM64.3288 6.095V5.095H63.3288V6.095H64.3288ZM77.8438 6.095H78.8438V5.095H77.8438V6.095ZM77.8438 5.52C75.9412 5.52 74.2083 6.06341 72.6758 7.14897L73.8318 8.78102C75.0192 7.93992 76.3464 7.52 77.8438 7.52V5.52ZM72.6758 7.14897C71.1894 8.20181 70.0095 9.53736 69.1433 11.1459L70.9043 12.0941C71.6248 10.756 72.5982 9.65485 73.8318 8.78102L72.6758 7.14897ZM69.1611 11.1143L61.9361 23.4393L63.6615 24.4507L70.8865 12.1257L69.1611 11.1143ZM61.9368 24.4519L75.2818 47.1469L77.0058 46.1331L63.6608 23.4381L61.9368 24.4519ZM75.2863 47.1545C75.8458 48.087 76.7817 48.49 77.8438 48.49V46.49C77.3192 46.49 77.1218 46.3264 77.0013 46.1255L75.2863 47.1545ZM76.8438 47.49V48H78.8438V47.49H76.8438ZM77.8438 47H76.6538V49H77.8438V47ZM76.6538 47H71.2988V49H76.6538V47ZM71.2988 47H60.6738V49H71.2988V47ZM61.6738 48V47.49H59.6738V48H61.6738ZM60.6738 48.49C61.1714 48.49 61.6702 48.3328 62.0609 47.9421L60.6467 46.5279C60.6537 46.5209 60.6632 46.5129 60.6749 46.5054C60.6866 46.4979 60.6972 46.4929 60.7052 46.4899C60.7215 46.4838 60.7156 46.49 60.6738 46.49V48.49ZM62.0609 47.9421C62.4483 47.5548 62.6938 47.0542 62.6938 46.47H60.6938C60.6938 46.4737 60.6935 46.4736 60.694 46.4712C60.6945 46.4687 60.6952 46.4672 60.695 46.4676C60.6947 46.4682 60.6924 46.4733 60.6856 46.483C60.6786 46.4929 60.6665 46.508 60.6467 46.5279L62.0609 47.9421ZM62.6938 46.47C62.6938 46.1779 62.6738 45.769 62.5032 45.4278L60.7144 46.3222C60.6923 46.2782 60.6834 46.2472 60.6812 46.2391C60.6787 46.2299 60.68 46.2323 60.6826 46.2502C60.688 46.2877 60.6938 46.358 60.6938 46.47H62.6938ZM62.4713 45.369L53.5463 30.154L51.8212 31.166L60.7462 46.381L62.4713 45.369ZM51.8211 30.1543L46.0411 40.0143L47.7665 41.0257L53.5465 31.1657L51.8211 30.1543ZM46.0521 39.9959C45.5036 40.8872 45.2238 41.8615 45.2238 42.9H47.2238C47.2238 42.2385 47.3973 41.6261 47.7554 41.0441L46.0521 39.9959ZM45.2238 42.9C45.2238 44.4636 45.779 45.8245 46.8767 46.9221L48.2909 45.5079C47.5752 44.7922 47.2238 43.943 47.2238 42.9H45.2238ZM46.8767 46.9221C47.9743 48.0197 49.3351 48.575 50.8988 48.575V46.575C49.8558 46.575 49.0066 46.2236 48.2909 45.5079L46.8767 46.9221ZM49.8988 47.575V48H51.8988V47.575H49.8988ZM50.8988 47H37.3838V49H50.8988V47ZM38.3838 48V47.575H36.3838V48H38.3838ZM37.3838 48.575C39.2866 48.575 40.999 48.0312 42.4832 46.9342L41.2944 45.3258C40.1719 46.1555 38.881 46.575 37.3838 46.575V48.575ZM42.4888 46.93C43.9492 45.8347 45.1428 44.5203 46.0613 42.9895L44.3463 41.9605C43.5648 43.263 42.5484 44.3853 41.2888 45.33L42.4888 46.93ZM46.0665 42.9807L53.2915 30.6557L51.5661 29.6443L44.3411 41.9693L46.0665 42.9807ZM53.2916 29.6445L39.9466 6.86453L38.2209 7.87547L51.5659 30.6555L53.2916 29.6445ZM39.9158 6.8153C39.3366 5.94644 38.4013 5.605 37.3838 5.605V7.605C37.953 7.605 38.151 7.77356 38.2517 7.9247L39.9158 6.8153ZM38.3838 6.605V6.095H36.3838V6.605H38.3838ZM37.3838 7.095H38.5738V5.095H37.3838V7.095ZM38.5738 7.095H43.9288V5.095H38.5738V7.095ZM43.9288 7.095H54.5538V5.095H43.9288V7.095ZM53.5538 6.095V6.605H55.5538V6.095H53.5538ZM54.5538 5.605C54.0503 5.605 53.4862 5.71952 53.0468 6.1252C52.5922 6.54483 52.4488 7.10938 52.4488 7.625H54.4488C54.4488 7.5426 54.4603 7.51328 54.4584 7.51839C54.4572 7.52179 54.4527 7.53294 54.4426 7.54842C54.4324 7.56419 54.419 7.5803 54.4033 7.5948C54.3698 7.62573 54.3474 7.62977 54.3644 7.62453C54.3853 7.6181 54.4434 7.605 54.5538 7.605V5.605ZM52.4488 7.625C52.4488 8.00762 52.5729 8.36422 52.7244 8.66721L54.5132 7.77279C54.4782 7.70275 54.4608 7.6546 54.4528 7.62653C54.4448 7.59838 54.4488 7.59978 54.4488 7.625H52.4488ZM52.7562 8.72596L61.6812 23.941L63.4063 22.929L54.4813 7.71403L52.7562 8.72596ZM63.4065 23.9407L69.1865 14.0807L67.4611 13.0693L61.6811 22.9293L63.4065 23.9407ZM69.1754 14.0991C69.724 13.2078 70.0038 12.2335 70.0038 11.195H68.0038C68.0038 11.8565 67.8303 12.4689 67.4721 13.0509L69.1754 14.0991ZM70.0038 11.195C70.0038 9.63135 69.4485 8.27053 68.3509 7.17289L66.9367 8.5871C67.6524 9.3028 68.0038 10.152 68.0038 11.195H70.0038ZM68.3509 7.17289C67.2533 6.07525 65.8924 5.52 64.3288 5.52V7.52C65.3718 7.52 66.221 7.87141 66.9367 8.5871L68.3509 7.17289ZM65.3288 6.52V6.095H63.3288V6.52H65.3288ZM64.3288 7.095H77.8438V5.095H64.3288V7.095ZM76.8438 6.095V6.52H78.8438V6.095H76.8438Z" fill="white"/>
<path opacity="0.75" d="M101.582 7.795L101.152 8.69786L101.161 8.70207L101.17 8.70611L101.582 7.795ZM107.617 12.215L106.866 12.8751L106.871 12.8814L106.877 12.8877L107.617 12.215ZM111.527 18.845L112.469 18.51L111.527 18.845ZM107.617 41.88L106.867 41.2184L106.866 41.2199L107.617 41.88ZM101.582 46.385L101.994 47.2961L102.003 47.2921L102.012 47.2879L101.582 46.385ZM85.347 46.385L84.917 47.2879L84.9298 47.294L84.9428 47.2997L85.347 46.385ZM79.227 41.88L78.4661 42.5289L78.4764 42.541L78.487 42.5527L79.227 41.88ZM75.402 35.165L74.4533 35.4812L74.4564 35.4907L74.4597 35.5L75.402 35.165ZM75.402 18.845L74.4597 18.51L74.4564 18.5193L74.4533 18.5288L75.402 18.845ZM79.227 12.215L78.487 11.5423L78.4813 11.5486L78.4758 11.5549L79.227 12.215ZM85.347 7.795L85.7591 8.70616L85.7687 8.70172L85.347 7.795ZM98.012 10.345L97.085 10.7202L97.0905 10.7337L97.0963 10.747L98.012 10.345ZM88.917 10.345L87.9977 9.95105L87.9932 9.96198L88.917 10.345ZM88.917 43.835L87.99 44.2102L87.9955 44.2237L88.0013 44.237L88.917 43.835ZM98.012 43.835L97.0927 43.4411L97.0882 43.452L98.012 43.835ZM93.507 7.095C96.3823 7.095 98.9239 7.63684 101.152 8.69786L102.012 6.89214C99.48 5.68649 96.6383 5.095 93.507 5.095V7.095ZM101.17 8.70611C103.427 9.72712 105.321 11.1172 106.866 12.8751L108.368 11.5549C106.626 9.57281 104.497 8.01621 101.994 6.88389L101.17 8.70611ZM106.877 12.8877C108.482 14.6528 109.719 16.7459 110.585 19.18L112.469 18.51C111.521 15.8441 110.152 13.5172 108.357 11.5423L106.877 12.8877ZM110.585 19.18C111.451 21.6154 111.887 24.2214 111.887 27.005H113.887C113.887 24.0086 113.417 21.1746 112.469 18.51L110.585 19.18ZM111.887 27.005C111.887 29.7886 111.451 32.3946 110.585 34.83L112.469 35.5C113.417 32.8354 113.887 30.0014 113.887 27.005H111.887ZM110.585 34.83C109.718 37.2663 108.478 39.3924 106.867 41.2184L108.367 42.5416C110.156 40.5143 111.522 38.1637 112.469 35.5L110.585 34.83ZM106.866 41.2199C105.317 42.9821 103.417 44.4036 101.152 45.4821L102.012 47.2879C104.507 46.0997 106.63 44.5179 108.368 42.5401L106.866 41.2199ZM101.17 45.4739C98.9373 46.4838 96.3893 47 93.507 47V49C96.6312 49 99.4666 48.4395 101.994 47.2961L101.17 45.4739ZM93.507 47C90.6251 47 88.0452 46.484 85.7511 45.4703L84.9428 47.2997C87.5221 48.4394 90.3822 49 93.507 49V47ZM85.7769 45.4821C83.5091 44.4022 81.5757 42.9771 79.9669 41.2073L78.487 42.5527C80.2782 44.5229 82.4249 46.1011 84.917 47.2879L85.7769 45.4821ZM79.9878 41.2311C78.4288 39.4033 77.2128 37.2731 76.3442 34.83L74.4597 35.5C75.4044 38.1569 76.7384 40.5033 78.4661 42.5289L79.9878 41.2311ZM76.3506 34.8488C75.5371 32.4081 75.127 29.7956 75.127 27.005H73.127C73.127 29.9944 73.5668 32.8219 74.4533 35.4812L76.3506 34.8488ZM75.127 27.005C75.127 24.2144 75.5371 21.6019 76.3506 19.1612L74.4533 18.5288C73.5668 21.1881 73.127 24.0156 73.127 27.005H75.127ZM76.3442 19.18C77.2121 16.739 78.4255 14.6418 79.9781 12.8751L78.4758 11.5549C76.7417 13.5282 75.4052 15.851 74.4597 18.51L76.3442 19.18ZM79.9669 12.8877C81.5719 11.1221 83.4992 9.72844 85.7591 8.70611L84.9348 6.88389C82.4347 8.01489 80.282 9.56789 78.487 11.5423L79.9669 12.8877ZM85.7687 8.70172C88.0585 7.6367 90.6321 7.095 93.507 7.095V5.095C90.3752 5.095 87.5088 5.68662 84.9252 6.88828L85.7687 8.70172ZM100.542 21.565C100.542 16.3835 100.036 12.4668 98.9276 9.94301L97.0963 10.747C98.0283 12.8698 98.542 16.4331 98.542 21.565H100.542ZM98.9389 9.96981C98.4136 8.672 97.7091 7.61663 96.7843 6.88375C95.8448 6.13929 94.7368 5.775 93.507 5.775V7.775C94.3171 7.775 94.9799 8.00571 95.5421 8.45124C96.119 8.90837 96.647 9.63799 97.085 10.7202L98.9389 9.96981ZM93.507 5.775C92.2771 5.775 91.1657 6.13913 90.2155 6.87815C89.2796 7.6061 88.5529 8.65585 87.9978 9.95108L89.8361 10.7389C90.301 9.65414 90.8493 8.9189 91.4434 8.45685C92.0232 8.00587 92.6968 7.775 93.507 7.775V5.775ZM87.9932 9.96198C86.95 12.4779 86.472 16.3859 86.472 21.565H88.472C88.472 16.4308 88.9572 12.8588 89.8407 10.728L87.9932 9.96198ZM86.472 21.565V27.005H88.472V21.565H86.472ZM86.472 27.005V32.53H88.472V27.005H86.472ZM86.472 32.53C86.472 37.712 86.9508 41.6427 87.99 44.2102L89.8439 43.4598C88.9565 41.2673 88.472 37.6613 88.472 32.53H86.472ZM88.0013 44.237C88.5585 45.5061 89.2876 46.5337 90.2247 47.2452C91.1748 47.9666 92.283 48.32 93.507 48.32V46.32C92.6909 46.32 92.0141 46.0926 91.4342 45.6523C90.8413 45.2022 90.2954 44.4872 89.8326 43.433L88.0013 44.237ZM93.507 48.32C94.7308 48.32 95.8356 47.9664 96.7751 47.2397C97.7012 46.5232 98.4083 45.4899 98.9357 44.218L97.0882 43.452C96.6523 44.5034 96.1268 45.2126 95.5513 45.6578C94.9891 46.0927 94.3231 46.32 93.507 46.32V48.32ZM98.9311 44.2289C100.035 41.6536 100.542 37.7144 100.542 32.53H98.542C98.542 37.6589 98.0291 41.2564 97.0928 43.4411L98.9311 44.2289ZM100.542 32.53V27.005H98.542V32.53H100.542ZM100.542 27.005V21.565H98.542V27.005H100.542Z" fill="white"/>
<path opacity="0.75" d="M117.994 36.525L117.287 35.8179L117.994 36.525ZM128.469 41.285C128.469 42.8941 127.92 44.2251 126.807 45.3379L128.221 46.7521C129.715 45.2582 130.469 43.4159 130.469 41.285H128.469ZM126.807 45.3379C125.694 46.4506 124.363 47 122.754 47V49C124.885 49 126.727 48.246 128.221 46.7521L126.807 45.3379ZM122.754 47C121.145 47 119.814 46.4506 118.701 45.3379L117.287 46.7521C118.781 48.246 120.623 49 122.754 49V47ZM118.701 45.3379C117.589 44.2251 117.039 42.8941 117.039 41.285H115.039C115.039 43.4159 115.793 45.2582 117.287 46.7521L118.701 45.3379ZM117.039 41.285C117.039 39.6759 117.589 38.3449 118.701 37.2321L117.287 35.8179C115.793 37.3118 115.039 39.1541 115.039 41.285H117.039ZM118.701 37.2321C119.814 36.1194 121.145 35.57 122.754 35.57V33.57C120.623 33.57 118.781 34.324 117.287 35.8179L118.701 37.2321ZM122.754 35.57C124.363 35.57 125.694 36.1194 126.807 37.2321L128.221 35.8179C126.727 34.324 124.885 33.57 122.754 33.57V35.57ZM126.807 37.2321C127.92 38.3449 128.469 39.6759 128.469 41.285H130.469C130.469 39.1541 129.715 37.3118 128.221 35.8179L126.807 37.2321Z" fill="white"/>
</svg>
