<svg width="14" height="14" viewBox="0 0 14 14" fill="none" xmlns="http://www.w3.org/2000/svg">
<path d="M8.80163 2.13939C8.65668 1.99405 8.47968 1.88473 8.28482 1.82021C8.08996 1.7557 7.88269 1.73778 7.67966 1.7679C7.47662 1.79803 7.28348 1.87535 7.11575 1.99366C6.94802 2.11197 6.81038 2.26798 6.71388 2.44914L4.94638 5.76539L2.48675 6.58526C2.41595 6.60878 2.35233 6.65001 2.30196 6.70505C2.25158 6.76008 2.21611 6.82708 2.19893 6.89968C2.18174 6.97228 2.18341 7.04807 2.20377 7.11984C2.22413 7.19162 2.2625 7.257 2.31525 7.30976L4.19388 9.18751L1.87775 11.5036L1.75 12.25L2.49637 12.1223L4.8125 9.80614L6.69025 11.6848C6.74301 11.7375 6.80839 11.7759 6.88017 11.7962C6.95194 11.8166 7.02773 11.8183 7.10033 11.8011C7.17294 11.7839 7.23993 11.7484 7.29497 11.6981C7.35 11.6477 7.39123 11.5841 7.41475 11.5133L8.23463 9.05451L11.5413 7.28351C11.7215 7.18682 11.8766 7.04936 11.9943 6.88208C12.112 6.7148 12.1889 6.52233 12.219 6.32003C12.2491 6.11774 12.2315 5.91121 12.1676 5.71692C12.1037 5.52263 11.9953 5.34596 11.851 5.20101L8.8025 2.13851L8.80163 2.13939Z" fill="#F6F6F6"/>
</svg>
