<svg width="14" height="14" viewBox="0 0 14 14" fill="none" xmlns="http://www.w3.org/2000/svg">
<path d="M12.577 14L7.81002 9.23399C6.76913 9.92066 5.51046 10.1966 4.27775 10.0085C3.04504 9.82034 1.92601 9.18145 1.13735 8.21554C0.348688 7.24963 -0.0534839 6.02543 0.0087129 4.78C0.0709097 3.53457 0.59305 2.35652 1.47402 1.47399C2.35639 0.592691 3.53443 0.0702081 4.77996 0.00774348C6.0255 -0.0547211 7.2499 0.347278 8.21602 1.13588C9.18213 1.92448 9.82121 3.04356 10.0095 4.27637C10.1977 5.50919 9.92175 6.768 9.23502 7.80899L14 12.577L12.577 14ZM5.03402 2.01399C4.23307 2.01346 3.46471 2.33113 2.89797 2.89712C2.33124 3.4631 2.01255 4.23104 2.01202 5.03199C2.01149 5.83295 2.32916 6.60131 2.89514 7.16804C3.46113 7.73478 4.22907 8.05346 5.03002 8.05399C5.42661 8.05426 5.81937 7.9764 6.18588 7.82488C6.55238 7.67335 6.88545 7.45112 7.16607 7.17087C7.44669 6.89062 7.66936 6.55785 7.82137 6.19155C7.97338 5.82524 8.05176 5.43259 8.05202 5.03599C8.05228 4.6394 7.97443 4.24664 7.8229 3.88014C7.67138 3.51363 7.44914 3.18057 7.1689 2.89995C6.88865 2.61933 6.55588 2.39666 6.18957 2.24464C5.82327 2.09263 5.43061 2.01426 5.03402 2.01399Z" fill="#F6F6F6"/>
</svg>
